<?xml version="1.0" encoding="iso-8859-1"?>
<!-- Generator: Adobe Illustrator 16.0.0, SVG Export Plug-In . SVG Version: 6.00 Build 0)  -->
<!DOCTYPE svg PUBLIC "-//W3C//DTD SVG 1.1//EN" "http://www.w3.org/Graphics/SVG/1.1/DTD/svg11.dtd">
<svg version="1.1" id="Layer_1" xmlns="http://www.w3.org/2000/svg" xmlns:xlink="http://www.w3.org/1999/xlink" x="0px" y="0px"
	 width="64px" height="55.999px" viewBox="0 0 64 55.999" style="enable-background:new 0 0 64 55.999;" xml:space="preserve">
<g id="Button_2_">
	<g>
		<path style="fill:#88C057;" d="M60,0H4C1.791,0,0,1.791,0,4v28c0,2.209,1.791,3.999,4,3.999h56c2.209,0,4-1.79,4-3.999V4
			C64,1.791,62.209,0,60,0z"/>
	</g>
</g>
<g id="BUY">
	<g>
		<path style="fill-rule:evenodd;clip-rule:evenodd;fill:#FFFFFF;" d="M32,11.998c-0.013,0-0.025,0.002-0.039,0.002h0.077
			C32.025,12,32.013,11.998,32,11.998z M19.224,16.944C19.716,16.074,20,15.07,20,13.999c0-3.313-2.687-6-6-6
			C13.997,7.999,13.993,8,13.99,8H8c-1.104,0-2,0.895-2,2v16c0,1.104,0.896,2,2,2h6v-0.35c0.626,0.222,1.297,0.349,2,0.349
			c3.313,0,6-2.686,6-6C22,19.873,20.892,18.01,19.224,16.944z M10,12h3.99c0.003,0,0.006-0.001,0.01-0.001c1.104,0,2,0.896,2,2
			s-0.896,2-2,2V16h-4V12z M16,23.999h-6V20h5.99c0.003,0,0.006-0.001,0.01-0.001c1.104,0,2,0.896,2,2S17.104,23.999,16,23.999z
			 M38,8c-1.104,0-2,0.895-2,2v10c-0.001,2.209-1.792,3.998-4,3.998c-2.207,0-3.995-1.787-4-3.993c0-0.002,0-0.003,0-0.005V10
			c0-1.105-0.896-2-2.001-2c-1.104,0-2,0.895-2,2v10c0,4.418,3.582,7.999,8,7.999c4.417,0,8-3.581,8-7.999V10
			C40,8.895,39.104,8,38,8z M57.051,8.254c-0.943-0.555-2.163-0.248-2.725,0.685L50,16.131l-4.327-7.192
			c-0.561-0.933-1.78-1.239-2.725-0.685c-0.943,0.555-1.253,1.761-0.692,2.693L48,20.496V26c0,1.104,0.896,2,2,2s2-0.896,2-2v-5.506
			l5.743-9.547C58.304,10.015,57.994,8.809,57.051,8.254z"/>
	</g>
</g>
<g id="Cursor">
	<g>
		<path style="fill-rule:evenodd;clip-rule:evenodd;fill:#666666;" d="M63.414,50.585L53.203,40.374l7.43-2.478
			c0.777-0.259,1.316-0.965,1.363-1.782s-0.408-1.581-1.15-1.928l-30-14c-0.762-0.353-1.664-0.196-2.26,0.398
			c-0.595,0.595-0.754,1.498-0.398,2.26l14,30c0.33,0.707,1.039,1.154,1.812,1.154c0.039,0,0.077-0.002,0.116-0.004
			c0.817-0.047,1.523-0.586,1.782-1.363l2.478-7.43l10.211,10.211c0.391,0.391,0.902,0.586,1.414,0.586s1.023-0.195,1.414-0.586l2-2
			C64.195,52.632,64.195,51.366,63.414,50.585z"/>
	</g>
</g>
<g>
</g>
<g>
</g>
<g>
</g>
<g>
</g>
<g>
</g>
<g>
</g>
<g>
</g>
<g>
</g>
<g>
</g>
<g>
</g>
<g>
</g>
<g>
</g>
<g>
</g>
<g>
</g>
<g>
</g>
</svg>
