<?xml version="1.0" encoding="iso-8859-1"?>
<!-- Generator: Adobe Illustrator 16.0.0, SVG Export Plug-In . SVG Version: 6.00 Build 0)  -->
<!DOCTYPE svg PUBLIC "-//W3C//DTD SVG 1.1//EN" "http://www.w3.org/Graphics/SVG/1.1/DTD/svg11.dtd">
<svg version="1.1" id="Layer_1" xmlns="http://www.w3.org/2000/svg" xmlns:xlink="http://www.w3.org/1999/xlink" x="0px" y="0px"
	 width="63.981px" height="44.035px" viewBox="0 0 63.981 44.035" style="enable-background:new 0 0 63.981 44.035;"
	 xml:space="preserve">
<g id="Wash">
	<g>
		<path style="fill:#87CFFF;" d="M51.991,2.034c-6,0-6,4.001-10,4.001s-4-4.001-10-4.001s-6,4.001-10,4.001s-4-4.001-10-4.001
			s-10,6-10,6l10,34h40l10-34C61.991,8.034,57.991,2.034,51.991,2.034z"/>
	</g>
</g>
<g id="Wash_1_">
	<g>
		<path style="fill-rule:evenodd;clip-rule:evenodd;fill:#48A0DC;" d="M62.537,0.067c-1.039-0.281-2.106,0.343-2.386,1.394
			l-9.706,38.574H13.536L3.83,1.461C3.551,0.41,2.483-0.214,1.444,0.067C0.405,0.35-0.211,1.43,0.067,2.48l10.082,40.071
			c0.23,0.867,0.998,1.434,1.842,1.451v0.032h40v-0.032c0.844-0.018,1.611-0.584,1.841-1.451L63.915,2.48
			C64.193,1.43,63.576,0.35,62.537,0.067z"/>
	</g>
</g>
<g id="_x33_0">
	<g>
		<path style="fill-rule:evenodd;clip-rule:evenodd;fill:#FFFFFF;" d="M27.991,14.034h-8c-1.105,0-2,0.896-2,2s0.895,1.999,2,1.999
			h4.31l-1.724,2.586c-0.362,0.362-0.586,0.862-0.586,1.415c0,1.104,0.895,2,2,2c1.104,0,2,0.896,2,2s-0.896,2-2,2
			c-1.105,0-2-0.896-2-2s-0.896-2-2-2c-1.105,0-2,0.896-2,2c0,3.313,2.686,6,6,6c3.313,0,6-2.687,6-6
			c0-2.174-1.161-4.073-2.893-5.125l2.307-3.46l0,0c0.362-0.361,0.586-0.861,0.586-1.414C29.991,14.93,29.094,14.034,27.991,14.034z
			 M37.991,14.034c-3.314,0-6,2.687-6,6c0,0,0,0,0,0.001v5.999c0,3.313,2.686,6,6,6c3.313,0,6-2.687,6-6v-5.999c0,0,0,0,0-0.001
			C43.991,16.721,41.304,14.034,37.991,14.034z M39.991,20.035v5.999c0,1.104-0.896,2-2,2s-2-0.896-2-2v-5.999c0,0,0,0,0-0.001
			c0-1.104,0.896-2.001,2-2.001S39.991,18.93,39.991,20.035C39.991,20.035,39.991,20.035,39.991,20.035z M47.991,14.034
			c-1.104,0-2,0.896-2,2c0,1.105,0.896,2.001,2,2.001s2-0.896,2-2.001C49.991,14.931,49.095,14.034,47.991,14.034z"/>
	</g>
</g>
<g>
</g>
<g>
</g>
<g>
</g>
<g>
</g>
<g>
</g>
<g>
</g>
<g>
</g>
<g>
</g>
<g>
</g>
<g>
</g>
<g>
</g>
<g>
</g>
<g>
</g>
<g>
</g>
<g>
</g>
</svg>
